<svg xmlns="http://www.w3.org/2000/svg" viewBox="0 0 64 64" fill="none" role="img" aria-label="Robinfun">
  <!-- Robinfun app icon / favicon / avatar — feather on the near-black ledger. -->
  <defs>
    <linearGradient id="rf-plume" x1="14" y1="54" x2="48" y2="10" gradientUnits="userSpaceOnUse">
      <stop offset="0" stop-color="#A6D62E"/>
      <stop offset="0.55" stop-color="#C6F23C"/>
      <stop offset="1" stop-color="#E4FF7A"/>
    </linearGradient>
    <linearGradient id="rf-bg" x1="0" y1="0" x2="0" y2="64" gradientUnits="userSpaceOnUse">
      <stop offset="0" stop-color="#12190F"/>
      <stop offset="1" stop-color="#080B0A"/>
    </linearGradient>
  </defs>
  <rect x="0.5" y="0.5" width="63" height="63" rx="15" fill="url(#rf-bg)" stroke="#26301C"/>
  <g transform="translate(32 32) scale(0.78) translate(-32 -32)">
    <path fill="url(#rf-plume)"
          d="M50 8 C 33 9, 20 18, 15 34 C 13.6 38.5, 13.2 43.2, 14 48
             L 25.2 36.8 C 25.6 32.2, 27.6 27.9, 31 24.5 C 34.5 21, 38.8 19, 43.4 18.6
             L 32.5 29.5 C 36.8 29.2, 41 27.6, 44.7 24.6 C 50.2 20.2, 52.4 13.7, 50 8 Z"/>
    <path fill="url(#rf-plume)" d="M21.6 37.4 L24 39.3 L12 53 L10.9 51.1 Z"/>
    <path stroke="#0A0F0A" stroke-width="2.1" stroke-linecap="round" opacity=".85" d="M44.4 14.4 L18.7 40.2"/>
  </g>
</svg>
